<svg width="24" height="24" viewBox="0 0 24 24" fill="none" xmlns="http://www.w3.org/2000/svg">
<path fill-rule="evenodd" clip-rule="evenodd" d="M12 19.5C12.2761 19.5 12.5 19.7239 12.5 20V21.5C12.5 21.7761 12.2761 22 12 22C11.7239 22 11.5 21.7761 11.5 21.5V20C11.5 19.7239 11.7239 19.5 12 19.5Z" fill="#EB5454"/>
<path fill-rule="evenodd" clip-rule="evenodd" d="M13.835 2.99327C12.8942 1.81735 11.1057 1.81735 10.165 2.99327C9.90879 3.3135 9.52094 3.49992 9.11085 3.49992L8.62029 3.4999C8.04638 3.4997 7.65465 3.49956 7.3199 3.59419C6.48393 3.83052 5.83058 4.48387 5.59425 5.31984C5.49962 5.65459 5.49976 6.04632 5.49996 6.62023L5.49998 14.9905C5.49985 14.9971 5.49985 15.0036 5.49998 15.0101L5.49998 15.5177C5.49997 15.9686 5.49997 16.3323 5.52017 16.6283C5.54093 16.9326 5.58471 17.2018 5.69028 17.4566C5.94401 18.0692 6.4307 18.5559 7.04327 18.8096C7.29812 18.9152 7.56726 18.959 7.87163 18.9797C8.05389 18.9922 8.26183 18.9969 8.49998 18.9988L8.49996 19.2695C8.49977 19.3977 8.49946 19.6108 8.56091 19.8115C8.63718 20.0605 8.80734 20.2954 9.11729 20.4238C9.23431 20.4723 9.34717 20.4875 9.44236 20.494C9.5294 20.4999 9.63171 20.4999 9.73674 20.4999H14.2632C14.3682 20.4999 14.4705 20.4999 14.5576 20.494C14.6528 20.4875 14.7656 20.4723 14.8827 20.4238C15.1926 20.2954 15.3628 20.0605 15.439 19.8115C15.5005 19.6108 15.5002 19.3977 15.5 19.2695L15.5 18.9988C15.7381 18.9969 15.9461 18.9922 16.1283 18.9797C16.4327 18.959 16.7018 18.9152 16.9567 18.8096C17.5693 18.5559 18.0559 18.0692 18.3097 17.4566C18.4152 17.2018 18.459 16.9326 18.4798 16.6283C18.5 16.3323 18.5 15.9686 18.5 15.5177V15.0043C18.5 15.0029 18.5 15.0014 18.5 14.9999C18.5 14.9984 18.5 14.997 18.5 14.9955L18.5 6.62023C18.5002 6.04632 18.5003 5.65459 18.4057 5.31984C18.1694 4.48387 17.516 3.83052 16.6801 3.59419C16.3453 3.49956 15.9536 3.4997 15.3797 3.4999L14.8891 3.49992C14.479 3.49992 14.0912 3.3135 13.835 2.99327ZM17.5 14.3166V6.70148C17.5 6.01499 17.4952 5.77516 17.4434 5.59187C17.3016 5.09029 16.9096 4.69828 16.408 4.55648C16.2247 4.50467 15.9849 4.49992 15.2984 4.49992H14.8891C14.1752 4.49992 13.5001 4.17541 13.0541 3.61797C12.5137 2.94245 11.4863 2.94245 10.9458 3.61797C10.4999 4.17541 9.82472 4.49992 9.11085 4.49992H8.70154C8.01505 4.49992 7.77522 4.50467 7.59193 4.55648C7.09035 4.69828 6.69834 5.09029 6.55654 5.59187C6.50473 5.77516 6.49998 6.01499 6.49998 6.70148V14.6035C8.29181 15.0031 9.50297 14.9734 11.3813 14.5142C11.91 14.385 12.2916 14.1237 12.7352 13.82C12.807 13.7709 12.8803 13.7207 12.9562 13.6697C13.4897 13.3114 14.1188 12.9472 15.0294 13.0008C15.8594 13.0496 16.4734 13.5287 16.9257 13.8867L16.9876 13.9358C17.1814 14.0895 17.3421 14.217 17.5 14.3166ZM9.49998 19.2499V18.9999H14.5V19.2499C14.5 19.3239 14.4997 19.3787 14.4962 19.4286C14.4941 19.4589 14.4911 19.4808 14.4882 19.4964C14.4395 19.4996 14.3722 19.4999 14.25 19.4999H9.74998C9.62779 19.4999 9.56044 19.4996 9.51178 19.4964C9.50882 19.4808 9.50586 19.4589 9.50374 19.4286C9.50025 19.3787 9.49998 19.3239 9.49998 19.2499Z" fill="#EB5454"/>
</svg>
