<svg width="28" height="28" viewBox="0 0 28 28" fill="none" xmlns="http://www.w3.org/2000/svg">
<path d="M9.9165 16.3333H10.3138C10.4242 16.3333 10.5216 16.2609 10.5533 16.1552L12.0683 11.1053C12.1137 10.9538 12.3322 10.9666 12.3597 11.1223L13.8774 19.723C13.9056 19.8825 14.1314 19.8904 14.1707 19.7333L15.1192 15.9394C15.147 15.8281 15.247 15.75 15.3617 15.75H18.0832" stroke="#154FBF" stroke-linecap="round"/>
<path d="M10.5002 4.95833V4.95833C10.5002 5.76375 11.1531 6.41667 11.9585 6.41667H16.0418C16.8472 6.41667 17.5002 5.76375 17.5002 4.95833V4.95833M10.5002 4.95833V4.95833C10.5002 4.15292 11.1531 3.5 11.9585 3.5H16.0418C16.8472 3.5 17.5002 4.15292 17.5002 4.95833V4.95833M10.5002 4.95833V4.95833C9.64644 4.95833 9.21958 4.95833 8.879 5.08652C8.33997 5.2894 7.91456 5.7148 7.71168 6.25383C7.5835 6.59442 7.5835 7.02128 7.5835 7.875V18.9167C7.5835 21.2737 7.5835 22.4522 8.31573 23.1844C9.04796 23.9167 10.2265 23.9167 12.5835 23.9167H15.4168C17.7739 23.9167 18.9524 23.9167 19.6846 23.1844C20.4168 22.4522 20.4168 21.2737 20.4168 18.9167V7.875C20.4168 7.02128 20.4168 6.59442 20.2886 6.25383C20.0858 5.7148 19.6604 5.2894 19.1213 5.08652C18.7807 4.95833 18.3539 4.95833 17.5002 4.95833V4.95833" stroke="#154FBF"/>
</svg>
