<svg width="58" height="58" viewBox="0 0 58 58" fill="none" xmlns="http://www.w3.org/2000/svg">
<path d="M38.0288 29.8485C39.589 28.756 40.2019 26.8387 39.6338 25.218C39.4511 24.6968 39.5452 24.0743 39.9976 23.7575L46.135 19.46C46.3652 19.2989 46.4174 18.9797 46.2506 18.7536L43.7879 15.4155C43.6268 15.1972 43.321 15.1472 43.0987 15.3028L37.0454 19.5414C36.593 19.8581 35.9758 19.7336 35.5485 19.3836C34.2199 18.2955 32.2086 18.2157 30.6483 19.3082C28.7906 20.609 28.2759 23.0792 29.4987 24.8256C30.018 25.5672 30.7672 26.0591 31.5996 26.2799C31.7284 26.3141 31.8148 26.4375 31.8029 26.5702C31.7257 27.4279 31.9316 28.3001 32.4509 29.0417C33.6737 30.7881 36.171 31.1493 38.0288 29.8485Z" fill="white"/>
<path d="M19.294 27.2586C17.7362 28.3494 17.1253 30.2653 17.6939 31.8855C17.8768 32.4067 17.7828 33.0292 17.3304 33.346L11.3088 37.5623C11.0872 37.7175 11.0292 38.0206 11.1778 38.2466L13.4569 41.7133C13.6117 41.9488 13.9306 42.0098 14.1615 41.8482L20.2826 37.5621C20.735 37.2453 21.3521 37.3699 21.7793 37.72C23.1073 38.8085 25.1166 38.8897 26.6744 37.7989C28.5293 36.5001 29.0417 34.0315 27.8189 32.2851C27.2996 31.5434 26.5508 31.0513 25.719 30.83C25.5903 30.7958 25.504 30.6725 25.5159 30.5399C25.5924 29.6826 25.3861 28.8107 24.8667 28.069C23.6439 26.3226 21.1489 25.9598 19.294 27.2586Z" fill="white"/>
<path fill-rule="evenodd" clip-rule="evenodd" d="M21.6044 18.4544C22.0757 18.1244 22.7252 18.2389 23.0552 18.7102L23.9001 19.9169C24.2301 20.3882 24.1156 21.0377 23.6443 21.3677C23.1731 21.6977 22.5235 21.5831 22.1936 21.1119L21.3486 19.9052C21.0186 19.4339 21.1332 18.7844 21.6044 18.4544Z" fill="white"/>
<path fill-rule="evenodd" clip-rule="evenodd" d="M26.667 17.9795C27.2336 18.0794 27.6119 18.6197 27.512 19.1862L27.3311 20.212C27.2312 20.7786 26.6909 21.1569 26.1244 21.057C25.5578 20.9571 25.1795 20.4168 25.2794 19.8503L25.4603 18.8244C25.5602 18.2579 26.1005 17.8796 26.667 17.9795Z" fill="white"/>
<path fill-rule="evenodd" clip-rule="evenodd" d="M19.4267 23.0492C19.5266 22.4827 20.0669 22.1044 20.6334 22.2043L21.6593 22.3851C22.2258 22.485 22.6041 23.0253 22.5042 23.5919C22.4043 24.1584 21.864 24.5367 21.2975 24.4368L20.2716 24.2559C19.7051 24.156 19.3268 23.6158 19.4267 23.0492Z" fill="white"/>
<path fill-rule="evenodd" clip-rule="evenodd" d="M36.3187 39.4685C35.8474 39.7984 35.1979 39.6839 34.8679 39.2126L34.023 38.0059C33.693 37.5347 33.8075 36.8851 34.2788 36.5552C34.75 36.2252 35.3996 36.3397 35.7295 36.811L36.5745 38.0177C36.9045 38.489 36.7899 39.1385 36.3187 39.4685Z" fill="white"/>
<path fill-rule="evenodd" clip-rule="evenodd" d="M31.2561 39.9434C30.6895 39.8435 30.3112 39.3032 30.4111 38.7366L30.592 37.7108C30.6919 37.1442 31.2322 36.7659 31.7987 36.8658C32.3653 36.9657 32.7436 37.506 32.6437 38.0726L32.4628 39.0984C32.3629 39.665 31.8226 40.0433 31.2561 39.9434Z" fill="white"/>
<path fill-rule="evenodd" clip-rule="evenodd" d="M38.4964 34.8736C38.3965 35.4402 37.8562 35.8185 37.2897 35.7186L36.2638 35.5377C35.6973 35.4378 35.319 34.8975 35.4189 34.331C35.5188 33.7644 36.0591 33.3861 36.6256 33.486L37.6515 33.6669C38.218 33.7668 38.5963 34.3071 38.4964 34.8736Z" fill="white"/>
</svg>
